<svg width="50" height="50" viewBox="0 0 50 50" fill="none" xmlns="http://www.w3.org/2000/svg">
<rect width="50" height="50" rx="25" fill="black"/>
<path d="M15.773 11.7702C16.683 11.4455 17.6666 11.3859 18.6092 11.5981C19.5519 11.8104 20.4149 12.2858 21.098 12.9692C21.7811 13.6526 22.2561 14.5159 22.468 15.4586C22.6798 16.4014 22.6197 17.3849 22.2946 18.2948L38.1103 34.1104L35.0157 37.2035L19.2 21.3894C18.29 21.714 17.3064 21.7737 16.3638 21.5615C15.4212 21.3492 14.5581 20.8737 13.875 20.1903C13.1919 19.5069 12.7169 18.6437 12.505 17.701C12.2932 16.7582 12.3533 15.7747 12.6784 14.8648L15.9392 18.1271C16.141 18.336 16.3824 18.5027 16.6493 18.6173C16.9162 18.7319 17.2032 18.7923 17.4936 18.7948C17.7841 18.7973 18.0722 18.742 18.341 18.632C18.6098 18.522 18.8541 18.3596 19.0595 18.1542C19.2648 17.9488 19.4273 17.7046 19.5373 17.4357C19.6473 17.1669 19.7026 16.8788 19.7001 16.5884C19.6976 16.2979 19.6372 16.0109 19.5226 15.744C19.4079 15.4771 19.2413 15.2357 19.0323 15.034L15.7715 11.7687L15.773 11.7702ZM30.8915 14.5177L35.5319 11.9394L37.594 14.0015L35.0157 18.6419L32.4373 19.1581L29.3457 22.2512L27.2821 20.1892L30.3753 17.096L30.8915 14.5177V14.5177ZM20.5796 25.8606L23.6728 28.9552L16.454 36.174C16.0559 36.5683 15.5217 36.7949 14.9615 36.8069C14.4013 36.8189 13.8579 36.6156 13.4432 36.2387C13.0286 35.8618 12.7743 35.3402 12.733 34.7814C12.6916 34.2226 12.8662 33.6692 13.2209 33.2354L13.3623 33.0794L20.5811 25.8606H20.5796Z" fill="#CED1F4"/>
</svg>
