<svg width="50" height="50" viewBox="0 0 50 50" fill="none" xmlns="http://www.w3.org/2000/svg">
<rect width="50" height="50" rx="25" fill="black"/>
<path d="M19.5213 32.7917H11.375V29.875H37.625V32.7917H29.4788L34.2081 37.521L32.146 39.5831L25.9583 33.3954V37.1667H23.0417V33.3954L16.854 39.5831L14.7919 37.521L19.5213 32.7917ZM14.2917 12.375H34.7083C35.0951 12.375 35.466 12.5286 35.7395 12.8021C36.013 13.0756 36.1667 13.4466 36.1667 13.8333V28.4167H12.8333V13.8333C12.8333 13.4466 12.987 13.0756 13.2605 12.8021C13.534 12.5286 13.9049 12.375 14.2917 12.375ZM15.75 15.2917V25.5H33.25V15.2917H15.75Z" fill="#DFE7EA"/>
</svg>
