<svg width="50" height="50" viewBox="0 0 50 50" fill="none" xmlns="http://www.w3.org/2000/svg">
<rect width="50" height="50" rx="25" fill="black"/>
<path d="M14.2917 15.2917V19.6667H34.7083V15.2917H14.2917ZM12.8333 12.375H36.1667C36.5534 12.375 36.9244 12.5286 37.1979 12.8021C37.4714 13.0756 37.625 13.4466 37.625 13.8333V21.125C37.625 21.5118 37.4714 21.8827 37.1979 22.1562C36.9244 22.4297 36.5534 22.5833 36.1667 22.5833H12.8333C12.4466 22.5833 12.0756 22.4297 11.8021 22.1562C11.5286 21.8827 11.375 21.5118 11.375 21.125V13.8333C11.375 13.4466 11.5286 13.0756 11.8021 12.8021C12.0756 12.5286 12.4466 12.375 12.8333 12.375ZM15.75 25.5H24.5C24.8868 25.5 25.2577 25.6536 25.5312 25.9271C25.8047 26.2006 25.9583 26.5716 25.9583 26.9583V31.3333H27.4167V40.0833H21.5833V31.3333H23.0417V28.4167H14.2917C13.9049 28.4167 13.534 28.263 13.2605 27.9895C12.987 27.716 12.8333 27.3451 12.8333 26.9583V24.0417H15.75V25.5ZM32.8592 28.0258L35.4375 25.4475L38.0158 28.0258C38.5256 28.5358 38.8728 29.1854 39.0134 29.8926C39.1539 30.5998 39.0817 31.3328 38.8057 31.9989C38.5297 32.665 38.0625 33.2344 37.4629 33.635C36.8634 34.0355 36.1585 34.2493 35.4375 34.2493C34.7165 34.2493 34.0116 34.0355 33.4121 33.635C32.8126 33.2344 32.3453 32.665 32.0693 31.9989C31.7933 31.3328 31.7211 30.5998 31.8617 29.8926C32.0023 29.1854 32.3494 28.5358 32.8592 28.0258Z" fill="#F5F5F5"/>
</svg>
