<svg width="150" height="30" viewBox="0 0 150 30" fill="none" xmlns="http://www.w3.org/2000/svg">
<path d="M16.7004 7.25926C13.0637 7.25926 9.74483 8.40741 7.27332 11.3333V7.62963H0V29.6296H7.27332V17.1111C10.3097 14.1852 13.9111 13.5926 17.1241 13.5926C18.7482 13.5926 20.337 13.8148 22.3143 14.3333V8C20.902 7.62963 19.1719 7.25926 16.7004 7.25926Z" fill="#323232"/>
<path d="M36.5693 7.25926C32.4737 7.25926 28.0602 8.07407 23.8234 9.51852L26.2949 14.963C30.3905 13.8519 33.5682 13.5926 36.2869 13.5926C39.1115 13.5926 43.0306 13.8148 43.0306 17.2222C40.665 16.3704 37.911 15.8519 34.6274 15.8519C28.2721 15.8519 22.0933 17.5185 22.0933 23.2593C22.0933 28.1111 26.0477 30 31.3791 30C35.6513 30 39.5351 29.1111 43.0306 26.9259V29.6296H50.2686V18.6296C50.198 10.2593 45.2549 7.25926 36.5693 7.25926ZM43.0306 22.6296C40.3825 23.7778 36.5693 24.7037 33.5329 24.7037C30.8495 24.7037 29.3666 24.5185 29.3666 22.7778C29.3666 20.9259 31.5557 20.3704 35.7926 20.3704C38.9349 20.3704 41.2652 20.7407 43.0306 21.2963V22.6296Z" fill="#323232"/>
<path d="M52.3749 0V5.7037H59.6482V0H52.3749ZM52.3749 7.62963V29.6296H59.6482V7.62963H52.3749Z" fill="#323232"/>
<path d="M61.2969 21.963C61.2969 28.9259 68.5702 30 76.585 30C84.5997 30 90.0371 28.9259 90.0371 22.4815C90.0371 16.6667 84.635 16.2593 76.3731 15.7407C70.1237 15.2963 69.1351 15.2222 69.1351 14.0741C69.1351 13 70.5827 12.8148 75.5964 12.8148C80.2569 12.8148 82.0929 13 82.0929 14.5185H89.3309C89.3309 8.33333 83.7877 7.25926 75.9494 7.25926C68.2877 7.25926 61.8618 8.33333 61.8618 14.3333C61.8618 19.7778 66.2399 20.5556 75.667 21.037C81.8811 21.4074 82.7991 21.4074 82.7991 22.7778C82.7991 24.1111 81.8458 24.4444 76.2319 24.4444C70.3003 24.4444 68.5702 23.7407 68.5702 21.963H61.2969Z" fill="#323232"/>
<path d="M105.312 23.9259C102.17 23.9259 99.3806 23.0741 98.6744 20.1111H119.965C119.965 10.2963 113.998 7.25926 105.665 7.25926C97.1209 7.25926 91.2599 10.5185 91.2599 18.6296C91.2599 26.7407 97.2268 30 105.312 30C113.539 30 118.411 27.2593 119.612 21.5556H112.444C110.855 23.3704 108.949 23.9259 105.312 23.9259ZM105.665 12.8148C108.666 12.8148 111.244 13.3333 112.268 15.8889H98.9569C99.9455 13.3333 102.488 12.8148 105.665 12.8148Z" fill="#323232"/>
<path d="M142.727 0V10.8148C140.502 8.40741 137.042 7.25926 133.158 7.25926C127.086 7.25926 121.189 9.96296 121.189 18.6296C121.189 27.2593 127.086 30 133.158 30C137.042 30 140.502 28.8519 142.727 26.4074V29.6296H150V0H142.727ZM135.595 23.6667C131.005 23.6667 128.427 22.4074 128.427 18.6296C128.427 14.8519 131.005 13.5926 135.595 13.5926C140.149 13.5926 142.727 14.8519 142.727 18.6296C142.727 22.4074 140.149 23.6667 135.595 23.6667Z" fill="#323232"/>
</svg>
